<?xml version="1.0" encoding="UTF-8"?>
<!-- Created with Inkscape (http://www.inkscape.org/) -->
<svg width="750" height="970" version="1.1" viewBox="0 0 198.4 256.6" xml:space="preserve" xmlns="http://www.w3.org/2000/svg" xmlns:cc="http://creativecommons.org/ns#" xmlns:dc="http://purl.org/dc/elements/1.1/" xmlns:rdf="http://www.w3.org/1999/02/22-rdf-syntax-ns#"><metadata><rdf:RDF><cc:Work rdf:about=""><dc:format>image/svg+xml</dc:format><dc:type rdf:resource="http://purl.org/dc/dcmitype/StillImage"/></cc:Work></rdf:RDF></metadata><g transform="translate(-6.191 -22.6)"><path d="m104.8 277.7c27.74-7.866 37.05-14.53 39.6-28.34 1.197-6.479 0.8998-10.91-1.197-17.84-6.367-21.06-6.227-20.38-4.134-20.18 1.03 0.0991 2.197 2.016 4.488 7.37 5.637 13.18 8.587 23.13 9.435 31.85l0.1748 1.796 2.928-2.639c1.61-1.452 3.855-3.529 4.988-4.617s3.427-3.287 5.097-4.888c15.78-15.12 16.86-23.89 5.707-46.64-4.226-8.622-4.811-10.33-3.864-11.28 1.323-1.323 2.663-0.3808 5.88 4.136 4.994 7.012 7.737 11.32 12.07 18.96 1.015 1.789 1.867 3.28 1.893 3.313 0.0263 0.0328 0.6462-1.253 1.377-2.858 12.15-26.67 10.84-36.19-7.796-56.82-7.855-8.692-8.232-9.23-7.022-10.02 1.421-0.9312 2.543-0.2789 8.142 4.734 7.924 7.095 13.7 13.16 17.52 18.37 0.7352 1.005 1.337 1.737 1.338 1.627 7.8e-4 -0.1106 0.1964-1.323 0.4348-2.695 4.995-28.75 1.066-40.98-17.3-53.85l-1.57-1.1 0.4392-0.6669c4.814-7.31 7.828-14.21 9.53-21.81 0.5171-2.31 0.736-2.166-3.642-2.402-6.891-0.3713-15.02 1.214-22.6 4.409-1.968 0.8294-3.847 1.617-4.174 1.75-0.4568 0.1854-2.608 0.1016-9.217-0.3589-14.11-0.9831-16.75-1.08-29.23-1.07-12.09 0.01-15.94 0.1479-26.46 0.9506-10.4 0.7935-13.52 1.702-16.72 4.87l-1.984 1.968-0.5045-0.4085c-6.914-5.599-18.89-6.559-27.53-2.208-11.63 5.857-17.29 16.65-15.74 30.01 0.4569 3.928 0.4062 3.84 1.732 3.015 14.52-9.038 26.79-9.025 34.18 0.0361 0.8946 1.097 1.822 2.232 2.06 2.521 0.3261 0.3952 0.7838 0.5811 1.843 0.7488 5.228 0.8271 13.76 3.695 17.24 5.795 5.312 3.204 5.201 2.346 0.8133 6.29-16 14.38-29.61 17.12-42.41 8.533-1.279-0.8584-2.325-1.485-2.323-1.393 0.04926 2.311 2.556 10.25 4.026 12.75 6.043 10.27 18.63 12.22 34.86 5.386 1.541-0.6489 2.836-1.146 2.877-1.105 0.591 0.591-1.696 2.354-7.39 5.697-12.63 7.412-17.46 14.99-17.46 27.36 0 5.446 2.275 15.59 3.194 14.24 0.15-0.2203 1.274-1.907 2.498-3.749 4.679-7.042 11.59-13.65 17.46-16.7 2.845-1.479 2.639-0.5898-0.677 2.923-6.279 6.652-9.785 12.19-11.5 18.17l-0.9803 3.424-0.03049 4.492c-0.08626 12.69 5.728 26.27 18.12 42.29l2.169 2.805 0.1597-1.974c0.7275-8.992 1.1-11.88 2.548-19.76 1.092-5.941 6.719-22.6 8.361-24.75 1.35-1.77 1.704-0.7149 1.539 4.584-0.1493 4.791-0.6636 20.61-1.015 31.23-0.4443 13.42-1.303 17.78-4.583 23.27-0.611 1.023-0.7229 1.34-0.4433 1.256 0.2056-0.062 1.447-0.4171 2.76-0.7892zm6.833-8.082c8.2e-4 -0.1424 0.1416-1.332 0.3124-2.645 0.6874-5.278 0.9836-9.987 1.207-19.19 0.1289-5.308 0.3132-12.38 0.4096-15.72 0.2114-7.329 4.6e-4 -14.13-0.4782-15.43-1.977-5.348-6.4-6.569-9.912-2.736-3.455 3.771-8.648 18.13-11.4 31.5-0.2083 1.014-0.4459 1.92-0.528 2.014-0.2504 0.2859-3.962-6.25-5.577-9.822-7.102-15.7-4.953-28.57 6.913-41.38 4.421-4.773 5.077-8.094 2.126-10.76-3.472-3.136-9.614-0.3753-22.5 10.11-0.8648 0.704-1.571 1.152-1.568 0.995 0.131-9.602 5.251-16.29 18.49-24.14 9.304-5.518 10.08-8.177 4.335-14.83l-0.8147-0.9428-1.301 0.5771c-14.52 6.443-24.98 7.037-31.93 1.813-2.467-1.854-2.484-1.829 0.8369-1.245 14.7 2.584 29.93-3.512 40.5-16.21 0.2826-0.3394 1.676-1.793 3.097-3.229l2.583-2.612-2.309-2.051c-1.893-1.988-4.75-4.733-8.753-6.616s-8.45-2.942-12.57-4.035l-4.864-1.271-1.882-1.896c-10.65-10.73-22.34-12.53-34.06-5.227-1.261 0.7846-1.279 0.7815-1.136-0.1941 1.305-8.919 4.669-14.26 11.13-17.67 9.135-4.825 22.21-1.276 25.46 6.912 6.74 16.95 27.03 17.76 33.2 1.328 0.4533-1.208 0.263-1.18 5.404-0.8089 3.576 0.2578 3.086 0.5916 3.438-2.343l0.2918-2.429-0.6619-0.0991c-0.364-0.0545-8.226-0.4556-17.47-0.8914-9.244-0.4358-16.84-0.8238-16.88-0.8623-0.3147-0.2976 0.9129-1.89 2.006-2.602 3.799-2.474 44.39-3.707 60.31-1.832 5.495 0.6472 5.259 0.489 3.224 2.169-3.493 2.883-11.57 10.91-11.57 11.5 0 0.3394 3.765 5.605 3.933 5.5 0.0949-0.0587 1.367-1.494 2.826-3.189 8.933-10.38 22.85-18.75 34.67-20.85 2.763-0.4924 5.417-0.7211 5.417-0.467 0 0.5649-3.167 7.209-4.516 9.475-5.365 9.01-13.93 16.46-28.62 24.91-1.107 0.6363-2.055 1.226-2.107 1.31-0.0811 0.1312 2.423 4.088 2.936 4.64 0.564 0.6065 15.96-9.582 23.44-15.51 2.326-1.844 1.99-1.929 7.018 1.786 10.58 7.813 14.24 15.6 13.93 29.62-0.1441 6.592-0.0106 6.372-2.443 4.022-8.073-7.799-11.29-10.44-15.36-12.63-6.306-3.39-12.2-1.443-12.17 4.02 0.0125 2.425 1.244 4.476 5.53 9.217 17.35 19.18 20.1 26.58 15.7 42.15-1.183 4.185-1.309 4.518-1.571 4.134-12.06-17.71-16.29-21.24-21.91-18.33-5.929 3.067-5.68 6.279 1.629 21.06 4.962 10.04 5.415 11.11 5.909 14 1.491 8.715-3.719 18.91-13.95 27.29-1.258 1.031-0.7957 1.832-3.686-6.393-6.357-18.09-9.624-24.22-14.14-26.5-4.296-2.177-8.847 0.7828-9.153 5.952-0.1212 2.046 0.0119 2.633 2.129 9.401 4.039 12.91 4.896 16.39 5.063 20.57 0.442 11.01-4.764 17.29-20.35 24.55-7.098 3.305-7.274 3.38-7.272 3.074zm17.11-78.15c8.913-7.814 13.83-20.43 13.93-35.77 0.0203-2.914 0.0611-5.298 0.0908-5.298 0.2878 0 8.191 15.41 11.12 21.68l1.365 2.923 0.4261-0.5376c9.861-12.44 10.99-23.37 4.233-40.99-0.6144-1.602-0.4904-1.575-2.413-0.5186-1.878 1.032-1.858 0.747-0.3556 5.215 3.479 10.34 3.657 15.77 0.7685 23.5-0.4235 1.133-0.877 2.378-1.008 2.765-0.3197 0.9479-0.3814 0.9137-1.197-0.663-2.103-4.068-14.5-23.88-15.88-25.38-0.091-0.0988-0.6547 0.0682-1.253 0.3712l-1.087 0.5509 0.2789 1.472c3.205 16.92-1.122 36.88-9.741 44.94l-0.5621 0.5258-2e-3 -7.141c-2e-3 -11.1-0.6573-17.44-2.707-26.2-0.8927-3.817-0.6332-3.429-1.955-2.928l-1.084 0.4104-1.266 4.393c-1.908 6.618-4.184 10.62-8.262 14.53-1.773 1.698-2.073 1.903-2.076 1.415-7.9e-4 -0.1491-0.2919-2.613-0.647-5.476-0.3551-2.863-0.6472-5.33-0.6492-5.483-2e-3 -0.1712-0.837 0.1481-2.178 0.8334-2.155 1.101-2.174 1.117-2.053 1.796 0.0671 0.3766 0.5933 4.421 1.169 8.987 1.191 9.442 0.9944 8.747 2.225 7.856 4.6-3.33 9.119-7.992 12.4-12.8l1.984-2.904 0.1509 1.073c1.011 7.188-0.014 25.19-1.786 31.37-0.1133 0.395-0.2059 0.8771-0.2059 1.071 0 0.5263 5.565-3.251 8.224-5.583zm23.98-75.18c9.332-5.804 18.09-13.12 22.76-19.02 1.774-2.239 3.336-4.554 3.072-4.554-0.1758 0-1.898 0.768-5.124 2.284-8.868 4.169-16.3 9.404-24.06 16.95l-4.213 4.096 2.137 3.53 0.976-0.5606c0.5368-0.3083 2.537-1.532 4.446-2.719zm-59.25-5.139c-3.902-0.4448-6.626-2.467-8.706-6.462l-1.155-2.218 1.155 2e-3c3.258 4e-3 3.932 0.1852 4.856 1.302 2.594 3.137 6.766 3.429 9.332 0.653l0.8468-0.916 2.316 0.0789c2.827 0.0963 2.825 0.095 1.803 1.642-0.9478 1.434-2.223 2.777-3.551 3.84-2.02 1.618-4.16 2.591-5.448 2.259-0.05967-0.0154-0.7119-0.0968-1.449-0.1809zm-45.89 33.41c20.14-2.772 28.52-2.775 33.68-0.012 3.128 1.674-1.635-8.824-5.73-12.63-5.974-5.555-14.73-6.527-38.62-4.286-16.63 1.56-21.61 1.099-29.15-2.698l-1.538-0.7747v1.408c0 2.314 0.9753 5.967 2.289 8.574 5.307 10.53 16.53 13.53 39.07 10.42zm-21.19-4.593c-3.6-0.363-8.739-2.706-11.6-5.289-1.159-1.047-1.066-1.158 0.6447-0.7643 5.236 1.203 11.74 1.14 23.75-0.2302 15.31-1.748 26.94-1.202 31.66 1.487 3.646 2.073 4.024 2.614 1.483 2.121-6.435-1.247-17.78-0.7275-30.27 1.386-7.58 1.284-12.07 1.652-15.68 1.288zm61.7-58.52c18.63-2.121 26.09-2.625 38.91-2.629 11.9-4e-3 22.86 0.6569 36.73 2.214 2.787 0.3129 2.414 0.6425 3.832-3.389 1.551-4.412 5.386-14.28 6.994-18 5.167-11.95 8.865-18.92 18.45-34.76 1.732-2.865-12.71-0.462-17.79 2.96-5.801 3.906-6.78 8.545-3.568 16.91 0.0983 0.2562-0.0224 0.2299-0.5071-0.1105-8.472-5.95-17.74-1.596-16.98 7.976 0.551 6.943 8.215 10.96 13.13 6.887 0.1939-0.161 0.2912-0.1657 0.2912-0.01432 0 0.125-0.8052 0.9431-1.789 1.818-10.74 9.548-28.66 8.186-36.76-2.793-2-2.714-2.017-2.804-0.3105-1.7 9.004 5.824 20.15-3.35 15.14-12.46-2.561-4.66-8.534-5.944-14.75-3.171-1.552 0.6918-1.63 0.6977-1.07 0.08009 6.752-7.449 1.913-19.88-7.242-18.6-7.879 1.096-10.81 10.48-5.569 17.85 0.4032 0.5669 0.7331 1.074 0.7331 1.127s-0.6969-0.2482-1.549-0.6692c-10.62-5.251-20.33 5.384-13.05 14.29 3.297 4.03 10.15 4.624 15.22 1.32 0.6552-0.4274 0.5739-0.2992-1.525 2.402-8.887 11.44-24.01 12.55-37.55 2.747-1.246-0.9025-1.229-0.9355 0.2771-0.5229 0.6559 0.1797 2.122 0.3789 3.259 0.4426l2.066 0.1159 1.862-0.9484c2.644-1.346 4.096-2.955 4.951-5.482l0.6271-1.855-0.3162-2.105c-1.242-8.267-8.787-11.65-16.14-7.23-0.9537 0.5732-1.734 1.023-1.734 0.9986 0-0.02393 0.3398-0.8685 0.7551-1.877 3.797-9.218-5.645-18.65-19.24-19.22-4.046-0.1697-3.895-0.3998-1.82 2.787 6.331 9.725 17.43 31.93 25.45 50.92 0.781 1.849 1.555 3.68 1.721 4.07 0.2407 0.5666 0.3973 0.6862 0.7845 0.5988 0.2661-0.06 3.9-0.498 8.075-0.9732z" fill="#fff" stroke-width=".8197"/></g></svg>
