<?xml version="1.0" encoding="UTF-8"?>
<!-- Created with Inkscape (http://www.inkscape.org/) -->
<svg width="406" height="962" version="1.1" viewBox="0 0 107.4 254.5" xml:space="preserve" xmlns="http://www.w3.org/2000/svg" xmlns:cc="http://creativecommons.org/ns#" xmlns:dc="http://purl.org/dc/elements/1.1/" xmlns:rdf="http://www.w3.org/1999/02/22-rdf-syntax-ns#"><metadata><rdf:RDF><cc:Work rdf:about=""><dc:format>image/svg+xml</dc:format><dc:type rdf:resource="http://purl.org/dc/dcmitype/StillImage"/></cc:Work></rdf:RDF></metadata><g transform="translate(-6.191 -23.99)"><path d="m51.89 23.99c-1.567 0.01309-1.093 0.4813 0.463 2.872 6.331 9.725 17.43 31.93 25.45 50.92 0.781 1.849 1.555 3.68 1.721 4.07 0.2407 0.5666 0.3978 0.6862 0.785 0.5989 0.2661-0.06 3.9-0.4983 8.074-0.9736 11.3-1.287 18.45-1.936 25.22-2.282v-18.16c-9.034 9.504-23.12 9.9-35.8 0.7147-1.246-0.9025-1.229-0.9356 0.277-0.523 0.6559 0.1797 2.122 0.3791 3.259 0.4429l2.067 0.1158 1.862-0.9483c2.644-1.346 4.096-2.955 4.95-5.482l0.6274-1.855-0.3163-2.105c-1.242-8.267-8.787-11.65-16.14-7.23-0.9537 0.5732-1.734 1.023-1.734 0.9989 0-0.02393 0.3397-0.8685 0.755-1.877 3.797-9.218-5.645-18.65-19.24-19.22-1.011-0.04242-1.761-0.0886-2.283-0.08423zm61.72 4.697c-0.9131 2.414-0.9635 5.273 0 8.1zm-4.675 10.91c-7.894 0.07074-13.19 8.448-7.272 15.68 2.627 3.212 7.506 4.199 11.95 2.812v-17.55c-1.61-0.6369-3.191-0.9616-4.675-0.9483zm4.675 46.51c-4.836 0.1168-9.262 0.3223-15.68 0.8118-10.4 0.7935-13.52 1.702-16.72 4.87l-1.984 1.967-0.5044-0.4082c-6.914-5.599-18.89-6.56-27.53-2.209-11.63 5.857-17.29 16.65-15.74 30.01 0.4569 3.928 0.406 3.84 1.732 3.015 14.52-9.038 26.79-9.025 34.18 0.0362 0.8946 1.097 1.822 2.231 2.06 2.52 0.3261 0.3952 0.7841 0.5811 1.844 0.7488 5.228 0.8271 13.76 3.694 17.24 5.794 5.312 3.204 5.201 2.347 0.8134 6.29-16 14.38-29.61 17.12-42.41 8.533-1.279-0.8584-2.325-1.485-2.323-1.393 0.04926 2.311 2.556 10.25 4.026 12.75 6.043 10.27 18.63 12.22 34.86 5.386 1.541-0.6489 2.836-1.146 2.877-1.104 0.591 0.591-1.696 2.354-7.39 5.697-12.63 7.412-17.46 14.99-17.46 27.36 0 5.446 2.275 15.59 3.194 14.24 0.15-0.2203 1.274-1.907 2.498-3.749 4.679-7.042 11.59-13.65 17.46-16.7 2.845-1.479 2.639-0.5899-0.677 2.923-6.279 6.652-9.785 12.19-11.5 18.17l-0.9803 3.424-0.03049 4.492c-0.08626 12.69 5.728 26.27 18.12 42.29l2.169 2.805 0.1597-1.975c0.7275-8.992 1.1-11.88 2.548-19.76 1.092-5.941 6.72-22.6 8.361-24.75 1.35-1.77 1.704-0.7152 1.539 4.584-0.1493 4.791-0.6634 20.61-1.015 31.23-0.4443 13.42-1.303 17.78-4.583 23.27-0.611 1.023-0.7229 1.34-0.4434 1.255 0.2056-0.062 1.447-0.417 2.76-0.7891 3.091-0.8764 5.873-1.735 8.522-2.593v-6c-1.273 0.5575-1.69 0.6812-1.689 0.5111 8.2e-4 -0.1424 0.1418-1.332 0.3126-2.644 0.6874-5.278 0.9836-9.988 1.207-19.19 0.0532-2.192 0.107-4.085 0.169-6.492v-23.17c-0.0716-0.6291-0.1449-1.243-0.2377-1.494-1.977-5.348-6.4-6.569-9.912-2.736-3.455 3.771-8.648 18.13-11.4 31.5-0.2083 1.014-0.446 1.92-0.5281 2.014-0.2504 0.2859-3.962-6.25-5.577-9.822-7.102-15.7-4.953-28.57 6.913-41.38 4.421-4.773 5.078-8.094 2.126-10.76-3.472-3.136-9.614-0.3749-22.5 10.11-0.8648 0.704-1.571 1.152-1.568 0.9948 0.131-9.602 5.251-16.29 18.49-24.14 9.304-5.518 10.08-8.177 4.335-14.83l-0.8144-0.9431-1.301 0.5772c-14.52 6.443-24.98 7.037-31.93 1.813-2.467-1.854-2.484-1.829 0.8372-1.245 14.7 2.584 29.93-3.512 40.5-16.21 0.2826-0.3394 1.676-1.793 3.097-3.229l2.583-2.612-2.309-2.051c-1.893-1.988-4.75-4.733-8.752-6.616-4.002-1.883-8.45-2.941-12.57-4.034l-4.864-1.271-1.882-1.897c-10.65-10.73-22.34-12.53-34.06-5.227-1.261 0.7846-1.279 0.7818-1.136-0.1938 1.305-8.919 4.669-14.26 11.13-17.67 9.135-4.825 22.21-1.276 25.46 6.911 6.74 16.95 27.03 17.76 33.2 1.328 0.3482-0.928 0.3716-1.12 2.669-0.9942v-4.982c-3.119-0.1672-5.493-0.3038-11.67-0.5948-9.244-0.4358-16.84-0.824-16.88-0.8625-0.3147-0.2976 0.9128-1.89 2.006-2.601 1.945-1.267 13.55-2.199 26.54-2.565zm-29.7 16.4 1.155 2e-3c3.258 4e-3 3.932 0.185 4.856 1.302 2.594 3.137 6.766 3.429 9.332 0.6532l0.847-0.9162 2.316 0.0791c2.827 0.0963 2.825 0.0951 1.803 1.642-0.9478 1.434-2.223 2.776-3.551 3.84-2.02 1.618-4.16 2.591-5.448 2.259-0.05967-0.0154-0.712-0.0968-1.45-0.1809-3.902-0.4448-6.626-2.467-8.705-6.462zm-77.39 21.68v1.409c0 2.314 0.9753 5.967 2.289 8.573 5.307 10.53 16.53 13.53 39.07 10.42 20.14-2.772 28.52-2.775 33.68-0.0119 3.128 1.674-1.635-8.824-5.73-12.63-5.974-5.555-14.73-6.527-38.62-4.287-16.63 1.56-21.61 1.099-29.15-2.699zm48.46 8.521c7.559-0.0304 13.21 0.8133 16.17 2.494 3.646 2.073 4.024 2.613 1.483 2.121-6.435-1.247-17.78-0.7272-30.27 1.386-7.58 1.284-12.07 1.652-15.68 1.288-3.6-0.363-8.739-2.706-11.6-5.289-1.159-1.047-1.066-1.158 0.6449-0.7643 5.236 1.203 11.74 1.141 23.75-0.23 5.741-0.6554 10.96-0.9884 15.5-1.007zm54.12 27.1c-2e-3 -0.1712-0.8371 0.1482-2.179 0.8335-2.155 1.101-2.173 1.117-2.053 1.796 0.0671 0.3766 0.5933 4.42 1.169 8.987 1.191 9.442 0.9941 8.747 2.225 7.856 1.826-1.322 3.616-2.894 5.344-4.561v-6.604c-0.3848 0.4088-0.713 0.8316-1.135 1.236-1.773 1.698-2.073 1.903-2.076 1.415-7.9e-4 -0.1491-0.2919-2.613-0.647-5.476-0.3551-2.863-0.647-5.33-0.649-5.482z" fill="#fff" stroke-width=".8197"/></g></svg>
