<?xml version="1.0" encoding="UTF-8" standalone="no"?>
<!-- Created with Inkscape (http://www.inkscape.org/) -->

<svg
   width="750"
   height="970"
   viewBox="0 0 198.43751 256.64584"
   version="1.1"
   id="svg1"
   xml:space="preserve"
   sodipodi:docname="griffin_full.svg"
   inkscape:version="1.3.2 (091e20ef0f, 2023-11-25)"
   xmlns:inkscape="http://www.inkscape.org/namespaces/inkscape"
   xmlns:sodipodi="http://sodipodi.sourceforge.net/DTD/sodipodi-0.dtd"
   xmlns="http://www.w3.org/2000/svg"
   xmlns:svg="http://www.w3.org/2000/svg"
   xmlns:rdf="http://www.w3.org/1999/02/22-rdf-syntax-ns#"
   xmlns:cc="http://creativecommons.org/ns#"
   xmlns:dc="http://purl.org/dc/elements/1.1/"><defs
     id="defs1" /><sodipodi:namedview
     id="base"
     pagecolor="#000000"
     bordercolor="#000000"
     borderopacity="0.3"
     inkscape:pageopacity="0.0"
     inkscape:pageshadow="2"
     inkscape:zoom="0.98994949"
     inkscape:cx="237.38585"
     inkscape:cy="487.90368"
     inkscape:document-units="mm"
     inkscape:showpageshadow="2"
     inkscape:pagecheckerboard="true"
     inkscape:deskcolor="#5a5a5a"
     inkscape:window-width="2538"
     inkscape:window-height="1375"
     inkscape:window-x="0"
     inkscape:window-y="0"
     inkscape:window-maximized="1"
     inkscape:current-layer="layer1" /><metadata
     id="metadata1"><rdf:RDF><cc:Work
         rdf:about=""><dc:format>image/svg+xml</dc:format><dc:type
           rdf:resource="http://purl.org/dc/dcmitype/StillImage" /></cc:Work></rdf:RDF></metadata><g
     inkscape:groupmode="layer"
     id="layer1"
     inkscape:label="Layer 1"
     transform="translate(-6.1914652,-22.596896)"><path
       style="fill:#ffffff;fill-opacity:1;stroke-width:0.819701"
       d="m 104.76308,277.7364 c 27.73999,-7.86576 37.04528,-14.52643 39.59735,-28.34351 1.19678,-6.47944 0.89985,-10.90628 -1.19679,-17.84243 -6.36708,-21.06364 -6.22701,-20.37989 -4.13365,-20.17856 1.03014,0.0991 2.19749,2.01612 4.48755,7.36952 5.63704,13.17751 8.58676,23.13422 9.43475,31.84685 l 0.17485,1.79647 2.92787,-2.63915 c 1.61033,-1.45153 3.85503,-3.52933 4.98822,-4.61732 1.13319,-1.08799 3.42669,-3.28736 5.09666,-4.8875 15.78434,-15.12425 16.85717,-23.89281 5.707,-46.64474 -4.22551,-8.62215 -4.81076,-10.33048 -3.86352,-11.27771 1.32334,-1.32335 2.66342,-0.38079 5.88012,4.13582 4.99399,7.01215 7.73708,11.32134 12.07048,18.96181 1.0148,1.78926 1.86664,3.28003 1.89298,3.31284 0.0263,0.0328 0.64615,-1.25335 1.37737,-2.85815 12.15109,-26.66798 10.84394,-36.19451 -7.79632,-56.81957 -7.85539,-8.69182 -8.23247,-9.23006 -7.02212,-10.0231 1.42114,-0.93116 2.54297,-0.27888 8.14232,4.73432 7.92415,7.09465 13.70373,13.15553 17.51784,18.37045 0.7352,1.00522 1.33737,1.73718 1.33817,1.62659 7.8e-4,-0.11058 0.19644,-1.32342 0.43477,-2.69518 4.99495,-28.74842 1.0664,-40.97895 -17.29586,-53.84633 l -1.56966,-1.09995 0.43923,-0.66694 c 4.81395,-7.309567 7.82839,-14.208837 9.5304,-21.812657 0.51714,-2.31035 0.73603,-2.16599 -3.64177,-2.40185 -6.89117,-0.37126 -15.01887,1.21429 -22.59923,4.40867 -1.96818,0.82939 -3.84664,1.61682 -4.17438,1.74984 -0.45678,0.1854 -2.6082,0.10162 -9.21736,-0.35894 -14.10771,-0.98309 -16.74846,-1.07975 -29.22502,-1.06969 -12.09161,0.01 -15.93785,0.14794 -26.459267,0.95058 -10.401973,0.79353 -13.521714,1.70245 -16.715638,4.87 l -1.983939,1.96755 -0.504534,-0.40854 c -6.914187,-5.59877 -18.890805,-6.5594 -27.533364,-2.2084 -11.633451,5.85671 -17.291601,16.646007 -15.737267,30.008737 0.456934,3.92825 0.406219,3.83997 1.731889,3.01484 14.521405,-9.03834 26.786722,-9.0254 34.175146,0.0361 0.89463,1.09721 1.821786,2.2315 2.060351,2.52066 0.326053,0.39519 0.783798,0.58111 1.843475,0.74876 5.22793,0.82713 13.759903,3.69453 17.241894,5.79459 5.311868,3.2037 5.201012,2.34639 0.8133,6.28972 -16.002777,14.38208 -29.607347,17.11977 -42.405224,8.53333 -1.279365,-0.85836 -2.324508,-1.48527 -2.322541,-1.39314 0.04926,2.31103 2.556418,10.24845 4.026167,12.74651 6.042967,10.27084 18.634435,12.21634 34.858129,5.38587 1.541202,-0.64887 2.836043,-1.14593 2.877405,-1.10456 0.591029,0.59103 -1.696207,2.35434 -7.389916,5.69713 -12.625371,7.41238 -17.458779,14.98786 -17.458779,27.36345 0,5.44615 2.275047,15.59155 3.193711,14.24212 0.149964,-0.22029 1.273848,-1.90744 2.497522,-3.74924 4.678968,-7.04249 11.585523,-13.649 17.461976,-16.70337 2.844813,-1.47863 2.638954,-0.58982 -0.676983,2.92291 -6.279303,6.65198 -9.785369,12.19267 -11.496019,18.1673 l -0.980297,3.4238 -0.03049,4.4923 c -0.08626,12.6935 5.727874,26.26515 18.116482,42.2884 l 2.16879,2.80509 0.159735,-1.9743 c 0.727526,-8.99189 1.100072,-11.88065 2.548131,-19.7584 1.092079,-5.94116 6.719345,-22.60171 8.360845,-24.75383 1.35008,-1.77004 1.70438,-0.71489 1.53923,4.58406 -0.1493,4.7908 -0.66355,20.6119 -1.01512,31.23061 -0.44434,13.42099 -1.30288,17.78059 -4.5832,23.2731 -0.611,1.02306 -0.72287,1.33987 -0.44334,1.25559 0.20561,-0.062 1.4474,-0.41714 2.75952,-0.78919 z m 6.83344,-8.08217 c 8.2e-4,-0.1424 0.14156,-1.33246 0.31244,-2.64458 0.6874,-5.27837 0.98357,-9.98724 1.20719,-19.19381 0.12893,-5.30812 0.31323,-12.3838 0.40956,-15.72374 0.21137,-7.32908 4.6e-4,-14.13324 -0.47823,-15.42799 -1.9773,-5.34812 -6.40007,-6.56909 -9.91205,-2.73639 -3.455089,3.77063 -8.648158,18.12633 -11.395779,31.50245 -0.20827,1.01391 -0.445876,1.92021 -0.528027,2.014 -0.250386,0.28587 -3.961738,-6.25014 -5.577041,-9.82165 -7.101955,-15.70269 -4.952846,-28.56613 6.912965,-41.37732 4.421156,-4.77341 5.077343,-8.09417 2.126231,-10.76032 -3.471647,-3.13642 -9.614404,-0.37529 -22.496809,10.11215 -0.864801,0.70403 -1.570621,1.15179 -1.568481,0.99503 0.131045,-9.60207 5.251275,-16.28697 18.488413,-24.13822 9.303689,-5.51821 10.080978,-8.17677 4.334948,-14.82663 l -0.814684,-0.94283 -1.30094,0.57711 c -14.524249,6.44314 -24.980937,7.03689 -31.931026,1.81308 -2.467194,-1.85438 -2.484375,-1.82882 0.836931,-1.2451 14.700091,2.58353 29.929439,-3.51175 40.500229,-16.20952 0.28257,-0.33942 1.67622,-1.7926 3.09699,-3.22928 l 2.58324,-2.61216 -2.3094,-2.05074 c -1.89341,-1.9878 -4.750441,-4.73313 -8.752793,-6.61614 -4.002352,-1.88301 -8.450297,-2.9417 -12.574333,-4.03472 l -4.863556,-1.2707 -1.881919,-1.89629 C 65.369427,109.17744 53.684761,107.38459 41.957553,114.6834 c -1.260667,0.78462 -1.278758,0.78153 -1.136032,-0.19406 1.304874,-8.91926 4.668992,-14.2606 11.131466,-17.673837 9.134912,-4.82474 22.209151,-1.2761 25.464315,6.911567 6.739639,16.95214 27.031928,17.76386 33.199198,1.32802 0.45332,-1.20806 0.26301,-1.17958 5.40376,-0.80894 3.57563,0.25781 3.08581,0.59157 3.4382,-2.34269 l 0.29178,-2.429477 -0.66189,-0.0991 c -0.36404,-0.0545 -8.22554,-0.45564 -17.47002,-0.8914 -9.244476,-0.43576 -16.841449,-0.82378 -16.882163,-0.86227 -0.314733,-0.29756 0.912851,-1.88994 2.005603,-2.6016 3.798634,-2.4739 44.39367,-3.70681 60.31275,-1.83176 5.49457,0.64718 5.25939,0.48895 3.22354,2.16884 -3.49327,2.88252 -11.57339,10.911027 -11.57339,11.499467 0,0.33942 3.7648,5.60452 3.93312,5.5005 0.0949,-0.0587 1.36656,-1.49371 2.82589,-3.18902 8.93277,-10.377207 22.84646,-18.745597 34.67018,-20.852377 2.7632,-0.49235 5.41672,-0.72111 5.41672,-0.46697 0,0.56487 -3.16712,7.209 -4.51646,9.47485 -5.36537,9.009647 -13.92509,16.459697 -28.61784,24.907907 -1.10667,0.63633 -2.0548,1.22599 -2.10694,1.31036 -0.0811,0.13118 2.42273,4.08834 2.93599,4.6402 0.56405,0.60648 15.95973,-9.58216 23.44333,-15.51446 2.32577,-1.84366 1.98998,-1.9291 7.01845,1.78585 10.57527,7.81281 14.23714,15.59886 13.93066,29.62002 -0.14409,6.59213 -0.0106,6.3723 -2.44325,4.02216 -8.07296,-7.79903 -11.28556,-10.44081 -15.36013,-12.63088 -6.30611,-3.38954 -12.19677,-1.44331 -12.16848,4.02037 0.0125,2.42466 1.24359,4.47643 5.53029,9.21736 17.34668,19.18479 20.10291,26.5835 15.70315,42.15294 -1.18261,4.1849 -1.30931,4.51821 -1.5713,4.13366 -12.06457,-17.7082 -16.28948,-21.24278 -21.91366,-18.33308 -5.92857,3.06717 -5.68018,6.27918 1.62872,21.06119 4.96225,10.036 5.41486,11.10822 5.90923,13.99886 1.49052,8.71521 -3.7191,18.90563 -13.95164,27.29043 -1.25767,1.03056 -0.79566,1.83187 -3.68573,-6.39257 -6.35684,-18.09008 -9.6241,-24.21561 -14.13563,-26.50177 -4.29578,-2.17683 -8.84673,0.78277 -9.15292,5.95236 -0.12117,2.04585 0.0119,2.63333 2.1289,9.40096 4.03883,12.91114 4.89571,16.39173 5.06332,20.5669 0.44197,11.00941 -4.76442,17.28972 -20.35048,24.54812 -7.09782,3.30544 -7.2737,3.37981 -7.27164,3.0742 z m 17.11439,-78.14552 c 8.91252,-7.81395 13.82805,-20.43338 13.93474,-35.77411 0.0203,-2.91364 0.0611,-5.29753 0.0908,-5.29753 0.2878,0 8.19131,15.41418 11.11797,21.68336 l 1.3647,2.92332 0.42612,-0.53764 c 9.86112,-12.44214 10.98958,-23.3678 4.2332,-40.98562 -0.61438,-1.60202 -0.49041,-1.57538 -2.41307,-0.51856 -1.87767,1.0321 -1.85823,0.74696 -0.35556,5.21458 3.47909,10.34379 3.65657,15.77066 0.76847,23.49828 -0.42352,1.13319 -0.877,2.37754 -1.00774,2.76521 -0.31966,0.94791 -0.38144,0.91368 -1.19662,-0.66297 -2.10333,-4.06802 -14.50316,-23.88117 -15.88351,-25.37955 -0.091,-0.0988 -0.65473,0.0682 -1.25266,0.37123 l -1.08715,0.5509 0.27892,1.47224 c 3.20474,16.91621 -1.12176,36.87748 -9.74053,44.94012 l -0.56206,0.52578 -0.002,-7.1406 c -0.002,-11.10185 -0.65726,-17.44188 -2.70663,-26.20489 -0.89274,-3.81734 -0.63321,-3.42853 -1.95472,-2.92839 l -1.08439,0.41039 -1.2664,4.39321 c -1.90762,6.61765 -4.18436,10.62046 -8.26249,14.52655 -1.7726,1.69782 -2.07301,1.90269 -2.07557,1.41548 -7.9e-4,-0.14911 -0.29193,-2.6134 -0.64698,-5.4762 -0.35506,-2.86281 -0.64721,-5.33003 -0.64922,-5.4827 -0.002,-0.17125 -0.83696,0.1481 -2.1785,0.83345 -2.1548,1.10083 -2.17371,1.11737 -2.05295,1.79576 0.0671,0.37658 0.59328,4.42074 1.16942,8.98701 1.19137,9.4423 0.99436,8.74667 2.2249,7.85606 4.60046,-3.32962 9.11877,-7.99221 12.40188,-12.79791 l 1.98385,-2.90391 0.1509,1.073 c 1.01081,7.18757 -0.014,25.18811 -1.78574,31.36578 -0.11327,0.39495 -0.20594,0.87709 -0.20594,1.07142 0,0.52632 5.56499,-3.25122 8.22409,-5.58255 z m 23.98247,-75.18347 c 9.33208,-5.80423 18.08634,-13.1202 22.76354,-19.023577 1.77428,-2.23942 3.33589,-4.55447 3.07221,-4.55447 -0.17576,0 -1.89836,0.76799 -5.12379,2.28434 -8.86813,4.16912 -16.30003,9.404367 -24.05755,16.946827 l -4.2131,4.09632 1.06836,1.76497 1.06835,1.76497 0.97596,-0.56057 c 0.53677,-0.3083 2.53748,-1.53177 4.44602,-2.71881 z m -59.247775,-5.13866 c -3.902097,-0.44484 -6.626013,-2.46667 -8.705627,-6.46174 l -1.154606,-2.21808 1.154606,0.002 c 3.257853,0.004 3.93195,0.18515 4.855843,1.3024 2.594305,3.13725 6.765919,3.42912 9.332247,0.65295 l 0.846784,-0.91602 2.316308,0.0789 c 2.8268,0.0963 2.82538,0.095 1.803,1.64216 -0.94777,1.43424 -2.22327,2.77657 -3.55064,3.84003 -2.020143,1.6185 -4.160435,2.59107 -5.448446,2.25871 -0.05967,-0.0154 -0.711902,-0.0968 -1.449469,-0.18086 z m -45.894109,33.40656 c 20.135504,-2.77209 28.516955,-2.77509 33.679711,-0.012 3.127602,1.67385 -1.634541,-8.82438 -5.730259,-12.63246 -5.974391,-5.55481 -14.733724,-6.52699 -38.621074,-4.28647 -16.632242,1.56002 -21.609089,1.09936 -29.1500188,-2.69819 l -1.53839,-0.77473 v 1.40838 c 0,2.31384 0.975256,5.96714 2.288728,8.57352 C 13.7872,144.7022 25.0118,147.69628 47.551496,144.59321 Z m -21.190263,-4.59293 c -3.600045,-0.36304 -8.73889,-2.70648 -11.597097,-5.28857 -1.159369,-1.04737 -1.066398,-1.15758 0.644703,-0.76426 5.235619,1.20349 11.743373,1.14041 23.748271,-0.23021 15.308293,-1.74777 26.935293,-1.20163 31.66437,1.48735 3.645989,2.07312 4.023764,2.61354 1.482691,2.12102 -6.434874,-1.24722 -17.782725,-0.72747 -30.265607,1.38623 -7.580169,1.28353 -12.068261,1.65239 -15.677331,1.28844 z M 88.063374,81.477713 c 18.631976,-2.12105 26.085216,-2.62461 38.908436,-2.62877 11.90091,-0.004 22.86167,0.65689 36.7349,2.21447 2.78709,0.31292 2.4145,0.64249 3.83171,-3.38932 1.55076,-4.411744 5.38623,-14.282879 6.99434,-18.000977 5.16749,-11.947656 8.86493,-18.91548 18.44747,-34.764157 1.7321,-2.86474 -12.70797,-0.462044 -17.79127,2.960304 -5.80103,3.905565 -6.77979,8.545152 -3.56825,16.914321 0.0983,0.256235 -0.0224,0.22993 -0.50709,-0.110495 -8.47179,-5.950078 -17.74202,-1.596084 -16.98232,7.976159 0.55104,6.943115 8.21487,10.96391 13.12713,6.887095 0.19394,-0.160955 0.29117,-0.165737 0.29117,-0.01432 0,0.125035 -0.80516,0.943118 -1.78925,1.817963 -10.74058,9.548266 -28.66441,8.186059 -36.75613,-2.793459 -2.00014,-2.713957 -2.01657,-2.80393 -0.31051,-1.700282 9.00351,5.82434 20.14901,-3.350296 15.14039,-12.463112 -2.56143,-4.660334 -8.53371,-5.94383 -14.75332,-3.170622 -1.55155,0.691802 -1.63003,0.697676 -1.07027,0.08009 6.75155,-7.448894 1.91301,-19.878396 -7.2425,-18.604981 -7.8786,1.095812 -10.80733,10.481609 -5.56877,17.846405 0.40321,0.566873 0.73312,1.073959 0.73312,1.126859 0,0.0529 -0.69687,-0.248221 -1.54859,-0.669154 -10.62421,-5.250624 -20.332488,5.383808 -13.04579,14.290329 3.2968,4.029665 10.15142,4.624305 15.2175,1.320121 0.65522,-0.427354 0.57388,-0.299185 -1.52474,2.402456 -8.88661,11.44007 -24.013139,12.5466 -37.545944,2.746545 -1.246306,-0.90254 -1.228813,-0.93554 0.277108,-0.522892 0.655901,0.179727 2.122321,0.378916 3.258705,0.442643 l 2.066163,0.115866 1.862468,-0.948402 c 2.643724,-1.346232 4.096267,-2.954674 4.950502,-5.481841 l 0.627079,-1.855144 -0.316199,-2.104828 c -1.241864,-8.266686 -8.78713,-11.647108 -16.137028,-7.229689 -0.953681,0.573178 -1.733963,1.02256 -1.733963,0.998627 0,-0.02393 0.339799,-0.868531 0.755109,-1.876888 3.796642,-9.218108 -5.64501,-18.646338 -19.244063,-19.216708 -4.045544,-0.169677 -3.895244,-0.399806 -1.8204,2.787344 6.331305,9.725429 17.428802,31.927828 25.453159,50.923264 0.781035,1.84889 1.555415,3.6802 1.720839,4.06956 0.240722,0.56662 0.397342,0.68616 0.784544,0.59884 0.266083,-0.06 3.899629,-0.49795 8.074555,-0.97322 z"
       id="path1"
       sodipodi:nodetypes="sssssscsssssssssssssscscssssssssscssscssssssssscssssssscsscssssssssscsssssssssssssscssssscszccsssssssscssssssscssssssssssssssscssssssssssccssscssssssssccssccsscsssscssssscsssccssssscccsssscssscssssssssssscsssssssssssssssssssscssssssssssssssssssscsscssssssssss" /></g></svg>
